# Tiled2Unity generated file. Do not modify by hand.
# Wavefront file for 'TestMap_mesh_0003.obj'

# Vertices (Count = 12)
v -26 -42 0
v -27 -42 0
v -27 -41 0
v -26 -41 0
v -19 -44 0
v -20 -44 0
v -20 -43 0
v -19 -43 0
v -10 -47 0
v -11 -47 0
v -11 -46 0
v -10 -46 0

# Texture cooridinates (Count = 6)
vt 0.8235294 0.125
vt 0.8823529 0.125
vt 0.8823529 0.25
vt 0.8235294 0.25
vt 0.8823529 0.375
vt 0.8235294 0.375

# Normal
vn 0 0 -1

# Mesh description
g TestMap_mesh_0003

# Faces
f 1/1/1 2/2/1 3/3/1 4/4/1
f 5/1/1 6/2/1 7/3/1 8/4/1
f 9/4/1 10/3/1 11/5/1 12/6/1

