# Tiled2Unity generated file. Do not modify by hand.
# Wavefront file for 'TestMap_mesh_0004.obj'

# Vertices (Count = 232)
v -3 -43 0
v -4 -43 0
v -4 -42 0
v -3 -42 0
v -4 -43 0
v -5 -43 0
v -5 -42 0
v -4 -42 0
v -5 -43 0
v -6 -43 0
v -6 -42 0
v -5 -42 0
v -6 -43 0
v -7 -43 0
v -7 -42 0
v -6 -42 0
v -25 -44 0
v -26 -44 0
v -26 -43 0
v -25 -43 0
v -26 -44 0
v -27 -44 0
v -27 -43 0
v -26 -43 0
v -27 -44 0
v -28 -44 0
v -28 -43 0
v -27 -43 0
v -28 -44 0
v -29 -44 0
v -29 -43 0
v -28 -43 0
v -29 -44 0
v -30 -44 0
v -30 -43 0
v -29 -43 0
v -30 -44 0
v -31 -44 0
v -31 -43 0
v -30 -43 0
v -9 -45 0
v -10 -45 0
v -10 -44 0
v -9 -44 0
v -10 -45 0
v -11 -45 0
v -11 -44 0
v -10 -44 0
v -11 -45 0
v -12 -45 0
v -12 -44 0
v -11 -44 0
v -19 -45 0
v -20 -45 0
v -20 -44 0
v -19 -44 0
v -20 -45 0
v -21 -45 0
v -21 -44 0
v -20 -44 0
v -25 -45 0
v -26 -45 0
v -26 -44 0
v -25 -44 0
v -26 -45 0
v -27 -45 0
v -27 -44 0
v -26 -44 0
v -27 -45 0
v -28 -45 0
v -28 -44 0
v -27 -44 0
v -28 -45 0
v -29 -45 0
v -29 -44 0
v -28 -44 0
v -29 -45 0
v -30 -45 0
v -30 -44 0
v -29 -44 0
v -30 -45 0
v -31 -45 0
v -31 -44 0
v -30 -44 0
v -17 -46 0
v -18 -46 0
v -18 -45 0
v -17 -45 0
v -18 -46 0
v -19 -46 0
v -19 -45 0
v -18 -45 0
v -19 -46 0
v -20 -46 0
v -20 -45 0
v -19 -45 0
v -20 -46 0
v -21 -46 0
v -21 -45 0
v -20 -45 0
v -29 -46 0
v -30 -46 0
v -30 -45 0
v -29 -45 0
v -30 -46 0
v -31 -46 0
v -31 -45 0
v -30 -45 0
v -14 -47 0
v -15 -47 0
v -15 -46 0
v -14 -46 0
v -15 -47 0
v -16 -47 0
v -16 -46 0
v -15 -46 0
v -16 -47 0
v -17 -47 0
v -17 -46 0
v -16 -46 0
v -17 -47 0
v -18 -47 0
v -18 -46 0
v -17 -46 0
v -18 -47 0
v -19 -47 0
v -19 -46 0
v -18 -46 0
v -19 -47 0
v -20 -47 0
v -20 -46 0
v -19 -46 0
v -20 -47 0
v -21 -47 0
v -21 -46 0
v -20 -46 0
v 0 -48 0
v -1 -48 0
v -1 -47 0
v 0 -47 0
v -1 -48 0
v -2 -48 0
v -2 -47 0
v -1 -47 0
v -2 -48 0
v -3 -48 0
v -3 -47 0
v -2 -47 0
v -3 -48 0
v -4 -48 0
v -4 -47 0
v -3 -47 0
v -4 -48 0
v -5 -48 0
v -5 -47 0
v -4 -47 0
v -5 -48 0
v -6 -48 0
v -6 -47 0
v -5 -47 0
v -6 -48 0
v -7 -48 0
v -7 -47 0
v -6 -47 0
v -7 -48 0
v -8 -48 0
v -8 -47 0
v -7 -47 0
v -8 -48 0
v -9 -48 0
v -9 -47 0
v -8 -47 0
v -9 -48 0
v -10 -48 0
v -10 -47 0
v -9 -47 0
v -10 -48 0
v -11 -48 0
v -11 -47 0
v -10 -47 0
v -11 -48 0
v -12 -48 0
v -12 -47 0
v -11 -47 0
v -12 -48 0
v -13 -48 0
v -13 -47 0
v -12 -47 0
v -13 -48 0
v -14 -48 0
v -14 -47 0
v -13 -47 0
v -14 -48 0
v -15 -48 0
v -15 -47 0
v -14 -47 0
v -15 -48 0
v -16 -48 0
v -16 -47 0
v -15 -47 0
v -16 -48 0
v -17 -48 0
v -17 -47 0
v -16 -47 0
v -17 -48 0
v -18 -48 0
v -18 -47 0
v -17 -47 0
v -18 -48 0
v -19 -48 0
v -19 -47 0
v -18 -47 0
v -19 -48 0
v -20 -48 0
v -20 -47 0
v -19 -47 0
v -20 -48 0
v -21 -48 0
v -21 -47 0
v -20 -47 0
v -21 -48 0
v -22 -48 0
v -22 -47 0
v -21 -47 0
v -22 -48 0
v -23 -48 0
v -23 -47 0
v -22 -47 0
v -23 -48 0
v -24 -48 0
v -24 -47 0
v -23 -47 0

# Texture cooridinates (Count = 24)
vt 0.4705882 0.75
vt 0.5294118 0.75
vt 0.5294118 0.875
vt 0.4705882 0.875
vt 0.4117647 0.875
vt 0.4705882 1
vt 0.4117647 1
vt 0.5882353 0.75
vt 0.5882353 0.875
vt 0.4117647 0.5
vt 0.4705882 0.5
vt 0.4705882 0.625
vt 0.4117647 0.625
vt 0.6470588 0.75
vt 0.7058824 0.75
vt 0.7058824 0.875
vt 0.6470588 0.875
vt 0.4117647 0.75
vt 0.7647059 0.75
vt 0.7647059 0.875
vt 0.5294118 1
vt 0.5882353 1
vt 0.7058824 1
vt 0.6470588 1

# Normal
vn 0 0 -1

# Mesh description
g TestMap_mesh_0004

# Faces
f 1/1/1 2/2/1 3/3/1 4/4/1
f 5/5/1 6/4/1 7/6/1 8/7/1
f 9/5/1 10/4/1 11/6/1 12/7/1
f 13/2/1 14/8/1 15/9/1 16/3/1
f 17/10/1 18/11/1 19/12/1 20/13/1
f 21/14/1 22/15/1 23/16/1 24/17/1
f 25/14/1 26/15/1 27/16/1 28/17/1
f 29/14/1 30/15/1 31/16/1 32/17/1
f 33/10/1 34/11/1 35/12/1 36/13/1
f 37/10/1 38/11/1 39/12/1 40/13/1
f 41/1/1 42/2/1 43/3/1 44/4/1
f 45/5/1 46/4/1 47/6/1 48/7/1
f 49/2/1 50/8/1 51/9/1 52/3/1
f 53/1/1 54/2/1 55/3/1 56/4/1
f 57/2/1 58/8/1 59/9/1 60/3/1
f 61/14/1 62/15/1 63/16/1 64/17/1
f 65/14/1 66/15/1 67/16/1 68/17/1
f 69/14/1 70/15/1 71/16/1 72/17/1
f 73/14/1 74/15/1 75/16/1 76/17/1
f 77/10/1 78/11/1 79/12/1 80/13/1
f 81/14/1 82/15/1 83/16/1 84/17/1
f 85/1/1 86/2/1 87/3/1 88/4/1
f 89/5/1 90/4/1 91/6/1 92/7/1
f 93/18/1 94/1/1 95/4/1 96/5/1
f 97/15/1 98/19/1 99/20/1 100/16/1
f 101/14/1 102/15/1 103/16/1 104/17/1
f 105/14/1 106/15/1 107/16/1 108/17/1
f 109/1/1 110/2/1 111/3/1 112/4/1
f 113/5/1 114/4/1 115/6/1 116/7/1
f 117/5/1 118/4/1 119/6/1 120/7/1
f 121/14/1 122/15/1 123/16/1 124/17/1
f 125/18/1 126/1/1 127/4/1 128/5/1
f 129/14/1 130/15/1 131/16/1 132/17/1
f 133/15/1 134/19/1 135/20/1 136/16/1
f 137/5/1 138/4/1 139/6/1 140/7/1
f 141/5/1 142/4/1 143/6/1 144/7/1
f 145/5/1 146/4/1 147/6/1 148/7/1
f 149/5/1 150/4/1 151/6/1 152/7/1
f 153/5/1 154/4/1 155/6/1 156/7/1
f 157/5/1 158/4/1 159/6/1 160/7/1
f 161/4/1 162/3/1 163/21/1 164/6/1
f 165/4/1 166/3/1 167/21/1 168/6/1
f 169/3/1 170/9/1 171/22/1 172/21/1
f 173/5/1 174/4/1 175/6/1 176/7/1
f 177/5/1 178/4/1 179/6/1 180/7/1
f 181/5/1 182/4/1 183/6/1 184/7/1
f 185/5/1 186/4/1 187/6/1 188/7/1
f 189/5/1 190/4/1 191/6/1 192/7/1
f 193/18/1 194/1/1 195/4/1 196/5/1
f 197/14/1 198/15/1 199/16/1 200/17/1
f 201/14/1 202/15/1 203/16/1 204/17/1
f 205/18/1 206/1/1 207/4/1 208/5/1
f 209/14/1 210/15/1 211/16/1 212/17/1
f 213/14/1 214/15/1 215/16/1 216/17/1
f 217/14/1 218/15/1 219/16/1 220/17/1
f 221/17/1 222/16/1 223/23/1 224/24/1
f 225/17/1 226/16/1 227/23/1 228/24/1
f 229/17/1 230/16/1 231/23/1 232/24/1

